# Blender 4.5.0
# www.blender.org
mtllib model.mtl
o Cube
v -0.551371 -0.441249 0.804124
v -0.551371 0.758751 0.804124
v -0.951371 -0.841249 -1.195876
v -0.951371 1.158751 -1.195876
v 0.648629 -0.441249 0.804124
v 0.648629 0.758751 0.804124
v 1.048629 -0.841249 -1.195876
v 1.048629 1.158751 -1.195876
v -0.951371 1.658751 0.804124
v -0.951371 1.658751 -1.195876
v 1.048629 1.658751 -1.195876
v 1.048629 1.658751 0.804124
v 2.999602 1.158751 -1.195876
v 2.428175 1.158751 2.183670
v -0.951371 1.158751 2.755097
v 2.999602 1.658751 -1.195876
v 2.428175 1.658751 2.183670
v -0.951371 1.658751 2.755097
v -0.951371 -0.841249 0.804124
v -0.951371 1.158751 0.804124
v 1.048629 1.158751 0.804124
v 1.048629 -0.841249 0.804124
v -0.551371 -0.441249 0.150846
v -0.551371 0.758751 0.150846
v 0.648629 0.758751 0.150846
v 0.648629 -0.441249 0.150846
v -0.951371 3.658751 -1.195876
v -0.951371 3.072501 0.804124
v -0.951371 3.658751 0.217873
v -0.951371 3.365626 0.725581
v -0.951371 3.580208 0.510998
v 1.048629 3.658751 0.217873
v 1.048629 3.072501 0.804124
v 1.048629 3.580208 0.510998
v 1.048629 3.365626 0.725581
v 1.048629 3.658751 -0.695876
v 1.048629 3.158751 -1.195876
v 0.548629 3.658751 -1.195876
v 1.048629 3.584562 -0.941289
v 0.974440 3.658751 -0.941289
v 0.989985 3.600106 -1.054523
v 0.974440 3.404163 -1.195876
v 1.048629 3.404163 -1.121687
v 0.989985 3.517397 -1.137232
v 0.794041 3.658751 -1.121687
v 0.794041 3.584562 -1.195876
v 0.907275 3.600106 -1.137232
v -0.951371 -0.174582 0.804124
v -0.951371 0.492084 0.804124
v -0.951371 0.492084 -1.195876
v -0.951371 -0.174582 -1.195876
v 1.048629 0.492084 -1.195876
v 1.048629 -0.174582 -1.195876
v 1.048629 0.492084 0.804124
v 1.048629 -0.174582 0.804124
v -0.551371 -0.041249 0.804124
v -0.551371 0.358751 0.804124
v 0.648629 0.358751 0.804124
v 0.648629 -0.041249 0.804124
v -0.551371 -0.041249 0.150846
v -0.551371 0.358751 0.150846
v 0.648629 0.358751 0.150846
v 0.648629 -0.041249 0.150846
v -0.951371 -0.174582 0.253121
v -0.951371 0.492084 0.253120
v 1.048629 0.492084 0.253121
v 1.048629 -0.174582 0.253120
v -0.903273 -0.041249 0.380132
v -0.903273 0.358751 0.380131
v 1.000531 0.358751 0.380132
v 1.000531 -0.041249 0.380131
v -0.940989 -0.041249 -0.238772
v -0.940989 0.358751 -0.238772
v 1.038247 0.358751 -0.238772
v 1.038247 -0.041249 -0.238772
v -0.632046 2.565522 0.804124
v -0.632046 2.887049 0.804124
v 0.729712 2.887049 0.804124
v 0.701342 2.537152 0.804124
v 0.133943 2.537152 0.804124
v 0.133943 1.913013 0.804124
v -0.187583 1.913013 0.804124
v -0.168670 2.527696 0.804124
v -0.632046 2.565522 0.312378
v -0.632046 2.887049 0.312378
v 0.729712 2.887049 0.312378
v 0.701342 2.537152 0.312378
v 0.133943 2.537152 0.312378
v 0.133943 1.913013 0.312378
v -0.187583 1.913013 0.312378
v -0.168670 2.527696 0.312378
v -0.632046 2.565522 1.218574
v -0.632046 2.887049 1.218574
v 0.729712 2.887049 1.218574
v 0.701342 2.537152 1.218574
v 0.133943 2.537152 1.218574
v 0.133943 1.913013 1.218574
v -0.187583 1.913013 1.218574
v -0.168670 2.527696 1.218574
vn -1.0000 -0.0000 -0.0000
vn -0.0000 -0.0000 -1.0000
vn 1.0000 -0.0000 -0.0000
vn -0.0000 1.0000 -0.0000
vn -0.0000 -1.0000 -0.0000
vn 0.9860 -0.0000 0.1667
vn 0.1667 -0.0000 0.9860
vn -0.0000 -0.0000 1.0000
vn -0.0000 0.9659 0.2588
vn -0.0000 0.7071 0.7071
vn -0.0000 0.2588 0.9659
vn 0.6889 0.6889 -0.2253
vn 0.8407 0.3829 -0.3829
vn 0.6889 0.2253 -0.6889
vn 0.3829 0.3829 -0.8407
vn 0.2253 0.6889 -0.6889
vn 0.3829 0.8407 -0.3829
vn 0.5773 0.5774 -0.5773
vn -0.5419 0.8174 0.1956
vn 0.5419 0.8174 0.1956
vn -0.9981 -0.0000 -0.0608
vn 0.9981 -0.0000 -0.0608
vn 0.9352 -0.0000 0.3541
vn -0.9352 -0.0000 0.3541
vn -0.5419 -0.8174 0.1956
vn 0.5419 -0.8174 0.1956
vn -0.0814 -0.9967 -0.0000
vn 0.9995 -0.0308 -0.0000
vn -0.9967 0.0808 -0.0000
vn 0.0814 0.9967 -0.0000
vn -0.9995 0.0308 -0.0000
vn 0.9967 -0.0808 -0.0000
vt 0.541667 0.000000
vt 0.625000 0.000000
vt 0.625000 0.250000
vt 0.541667 0.250000
vt 0.625000 0.500000
vt 0.541667 0.500000
vt 0.625000 0.750000
vt 0.541667 0.750000
vt 0.425000 0.950000
vt 0.425000 0.800000
vt 0.125000 0.500000
vt 0.375000 0.500000
vt 0.375000 0.750000
vt 0.125000 0.750000
vt 0.625000 1.000000
vt 0.875000 0.750000
vt 0.525000 0.950000
vt 0.575000 0.950000
vt 0.541667 1.000000
vt 0.475000 0.800000
vt 0.458333 0.750000
vt 0.375000 1.000000
vt 0.575000 0.800000
vt 0.525000 0.800000
vt 0.525000 0.950000
vt 0.475000 0.950000
vt 0.475000 0.950000
vt 0.625000 0.676719
vt 0.875000 0.676719
vt 0.875000 0.713359
vt 0.625000 0.713359
vt 0.625000 0.742506
vt 0.875000 0.750000
vt 0.625000 0.750000
vt 0.625000 0.009818
vt 0.625000 0.036641
vt 0.625000 0.073281
vt 0.664865 0.750000
vt 0.668411 0.750000
vt 0.739336 0.750000
vt 0.739336 0.750000
vt 0.779527 0.750000
vt 0.777162 0.750000
vt 0.835084 0.750000
vt 0.625000 0.562500
vt 0.625000 0.531830
vt 0.625663 0.517669
vt 0.634274 0.531823
vt 0.625000 0.509279
vt 0.625000 0.500663
vt 0.625000 0.500000
vt 0.625000 0.490726
vt 0.625155 0.468331
vt 0.635639 0.492970
vt 0.650882 0.463382
vt 0.656824 0.509274
vt 0.875000 0.500000
vt 0.475000 0.800000
vt 0.458333 1.000000
vt 0.458333 0.500000
vt 0.375000 0.250000
vt 0.458333 0.250000
vt 0.375000 0.000000
vt 0.458333 0.000000
vt 0.835084 0.750000
s 0
f 49/1/1 20/2/1 4/3/1 50/4/1
f 50/4/2 4/3/2 8/5/2 52/6/2
f 52/6/3 8/5/3 21/7/3 54/8/3
f 1/9/4 5/10/4 26/10/4 23/9/4
f 3/11/5 7/12/5 22/13/5 19/14/5
f 8/5/2 11/5/2 16/5/2 13/5/2
f 4/3/1 20/2/1 9/2/1 10/3/1
f 9/2/1 20/2/1 15/2/1 18/2/1
f 8/5/2 4/3/2 10/3/2 11/5/2
f 14/7/6 13/5/6 16/5/6 17/7/6
f 15/15/7 14/7/7 17/7/7 18/15/7
f 11/5/4 12/7/4 17/7/4 16/5/4
f 21/7/5 8/5/5 13/5/5 14/7/5
f 12/7/4 9/16/4 18/16/4 17/7/4
f 20/15/5 21/7/5 14/7/5 15/15/5
f 57/17/8 2/18/8 20/15/8 49/19/8
f 59/20/8 5/10/8 22/13/8 55/21/8
f 5/10/8 1/9/8 19/22/8 22/13/8
f 2/18/8 6/23/8 21/7/8 20/15/8
f 62/24/8 25/23/8 24/18/8 61/25/8
f 56/26/3 1/9/3 23/9/3 60/27/3
f 6/23/5 2/18/5 24/18/5 25/23/5
f 58/24/1 6/23/1 25/23/1 62/24/1
f 32/28/9 29/29/9 31/30/9 34/31/9
f 34/31/10 31/30/10 30/16/10 35/32/10
f 35/32/11 30/16/11 28/33/11 33/34/11
f 10/3/1 9/2/1 28/2/1 30/35/1 31/36/1 29/37/1 27/3/1
f 9/16/8 12/7/8 33/34/8 78/38/8 79/39/8 80/40/8 81/41/8 82/42/8 83/43/8 76/44/8 28/33/8
f 36/45/12 39/46/12 41/47/12 40/48/12
f 39/46/13 43/49/13 44/50/13 41/47/13
f 37/51/14 42/52/14 44/50/14 43/49/14
f 42/52/15 46/53/15 47/54/15 44/50/15
f 38/55/16 45/56/16 47/54/16 46/53/16
f 45/56/17 40/48/17 41/47/17 47/54/17
f 41/47/18 44/50/18 47/54/18
f 36/45/4 40/48/4 45/56/4 38/55/4 27/57/4 29/29/4 32/28/4
f 11/5/2 10/3/2 27/3/2 38/55/2 46/53/2 42/52/2 37/51/2
f 12/7/3 11/5/3 37/51/3 43/49/3 39/46/3 36/45/3 32/28/3 34/31/3 35/32/3 33/34/3
f 5/10/1 59/20/1 63/58/1 26/10/1
f 48/59/19 56/26/19 68/26/19 64/59/19
f 2/18/3 57/17/3 61/25/3 24/18/3
f 58/24/5 62/24/5 74/24/5 70/24/5
f 26/10/8 63/58/8 60/27/8 23/9/8
f 60/27/4 63/58/4 75/58/4 72/27/4
f 6/23/8 58/24/8 54/8/8 21/7/8
f 59/20/20 55/21/20 67/21/20 71/20/20
f 1/9/8 56/26/8 48/59/8 19/22/8
f 63/58/4 59/20/4 71/20/4 75/58/4
f 7/12/3 53/60/3 55/21/3 22/13/3
f 53/60/3 52/6/3 54/8/3 55/21/3
f 3/61/2 51/62/2 53/60/2 7/12/2
f 51/62/2 50/4/2 52/6/2 53/60/2
f 19/63/1 48/64/1 51/62/1 3/61/1
f 48/64/1 49/1/1 50/4/1 51/62/1
f 71/20/21 70/24/21 74/24/21 75/58/21
f 69/17/22 68/26/22 72/27/22 73/25/22
f 75/58/8 74/24/8 73/25/8 72/27/8
f 70/24/23 71/20/23 67/21/23 66/8/23
f 68/26/24 69/17/24 65/19/24 64/59/24
f 55/21/1 54/8/1 66/8/1 67/21/1
f 62/24/5 61/25/5 73/25/5 74/24/5
f 61/25/5 57/17/5 69/17/5 73/25/5
f 49/1/3 48/64/3 64/64/3 65/1/3
f 57/17/25 49/19/25 65/19/25 69/17/25
f 54/8/26 58/24/26 70/24/26 66/8/26
f 56/26/4 60/27/4 72/27/4 68/26/4
f 84/44/27 91/43/27 99/43/27 92/44/27
f 28/33/8 76/44/8 77/65/8 78/38/8 33/34/8
f 83/43/28 82/42/28 90/42/28 91/43/28
f 81/41/1 80/40/1 88/40/1 89/41/1
f 79/39/29 78/38/29 86/38/29 87/39/29
f 77/65/3 76/44/3 84/44/3 85/65/3
f 76/44/30 83/43/30 91/43/30 84/44/30
f 82/42/4 81/41/4 89/41/4 90/42/4
f 80/40/4 79/39/4 87/39/4 88/40/4
f 78/38/5 77/65/5 85/65/5 86/38/5
f 93/65/8 92/44/8 99/43/8 98/42/8 97/41/8 96/40/8 95/39/8 94/38/8
f 90/42/5 89/41/5 97/41/5 98/42/5
f 88/40/5 87/39/5 95/39/5 96/40/5
f 86/38/4 85/65/4 93/65/4 94/38/4
f 91/43/31 90/42/31 98/42/31 99/43/31
f 89/41/3 88/40/3 96/40/3 97/41/3
f 87/39/32 86/38/32 94/38/32 95/39/32
f 85/65/1 84/44/1 92/44/1 93/65/1
